<svg xmlns="http://www.w3.org/2000/svg" viewBox="0 0 60 60">
  <path d=" M 40 25.556 L 30 25.556 L 30 12.222 C 30 10.956 29.281 9.797 28.147 9.236 C 27.011 8.672 25.654 8.802 24.647 9.571 L 1.313 27.349 C 0.487 27.978 0 28.96 0 30 C 0 31.04 0.486 32.022 1.313 32.652 L 24.647 50.43 C 25.239 50.88 25.951 51.111 26.669 51.111 C 27.172 51.111 27.678 50.997 28.147 50.765 C 29.282 50.204 30 49.045 30 47.778 L 30 34.445 L 40 34.445 C 46.127 34.445 51.111 39.429 51.111 45.556 C 51.111 48.011 53.1 50 55.556 50 C 58.011 50 60 48.011 60 45.556 C 60 34.528 51.028 25.556 40 25.556 Z " />
</svg>