<svg xmlns="http://www.w3.org/2000/svg" viewBox="0 0 60 60">
  <path d=" M 59.714 31.009 C 59.264 30.12 58.35 29.559 57.353 29.559 L 51.176 29.559 L 51.176 15.441 C 51.176 13.491 49.597 11.912 47.647 11.912 L 27.353 11.912 C 25.403 11.912 23.824 13.491 23.824 15.441 C 23.824 17.391 25.403 18.971 27.353 18.971 L 43.235 18.971 C 43.722 18.971 44.116 19.364 44.118 19.851 L 44.118 29.559 L 37.941 29.559 C 36.944 29.559 36.031 30.12 35.58 31.009 C 35.13 31.901 35.216 32.968 35.807 33.771 L 45.513 47.006 C 46.013 47.687 46.805 48.088 47.647 48.088 C 48.489 48.088 49.284 47.687 49.782 47.006 L 59.488 33.771 C 60.078 32.966 60.165 31.899 59.714 31.009 Z  M 32.647 41.029 L 16.765 41.029 C 16.288 41.029 15.909 40.653 15.889 40.182 L 15.882 30.441 L 22.059 30.441 C 23.056 30.441 23.97 29.88 24.421 28.991 C 24.871 28.099 24.784 27.032 24.194 26.229 L 14.488 12.994 C 13.989 12.313 13.196 11.912 12.353 11.912 C 11.509 11.912 10.717 12.313 10.218 12.994 L 0.512 26.229 C -0.077 27.034 -0.165 28.101 0.287 28.991 C 0.737 29.881 1.65 30.441 2.647 30.441 L 8.824 30.441 L 8.834 44.561 C 8.836 46.51 10.415 48.088 12.364 48.088 L 32.649 48.088 C 34.597 48.088 36.178 46.509 36.178 44.559 C 36.178 42.609 34.597 41.029 32.649 41.029 L 32.647 41.029 Z " />
</svg>